<?xml version="1.0" encoding="utf-8"?>
<!-- Generator: Adobe Illustrator 24.1.3, SVG Export Plug-In . SVG Version: 6.00 Build 0)  -->
<svg version="1.1" id="Layer_1" xmlns="http://www.w3.org/2000/svg" xmlns:xlink="http://www.w3.org/1999/xlink" x="0px" y="0px"
	 viewBox="0 0 43 43" style="enable-background:new 0 0 43 43;" xml:space="preserve">
<style type="text/css">
	.st0{fill:#FFFFFF;}
	.st1{fill:#808080;}
</style>
<g>
	<path class="st0" d="M41.5,1.5v40h-40v-40H41.5 M42.5,0.5h-42v42h42V0.5L42.5,0.5z"/>
</g>
<g>
	<circle class="st0" cx="21.5" cy="21.5" r="12"/>
	<path class="st1" d="M21.5,10C27.8,10,33,15.2,33,21.5S27.8,33,21.5,33S10,27.8,10,21.5S15.2,10,21.5,10 M21.5,9
		C14.6,9,9,14.6,9,21.5S14.6,34,21.5,34S34,28.4,34,21.5S28.4,9,21.5,9L21.5,9z"/>
</g>
<g>
	<circle cx="21.5" cy="21.5" r="12"/>
	<path d="M21.5,10C27.8,10,33,15.2,33,21.5S27.8,33,21.5,33S10,27.8,10,21.5S15.2,10,21.5,10 M21.5,9C14.6,9,9,14.6,9,21.5
		S14.6,34,21.5,34S34,28.4,34,21.5S28.4,9,21.5,9L21.5,9z"/>
</g>
</svg>
